<?xml version="1.0" standalone="no"?>
<!DOCTYPE svg PUBLIC "-//W3C//DTD SVG 1.1//EN" "http://www.w3.org/Graphics/SVG/1.1/DTD/svg11.dtd" >
<svg xmlns="http://www.w3.org/2000/svg" xmlns:xlink="http://www.w3.org/1999/xlink" version="1.1">
<metadata></metadata>
<defs>
<font id="a750-sans-cdlight" horiz-adv-x="616" >
<font-face units-per-em="2048" ascent="1638" descent="-410" />
<missing-glyph horiz-adv-x="454" />
<glyph horiz-adv-x="0" />
<glyph unicode="&#xd;" horiz-adv-x="454" />
<glyph unicode=" "  horiz-adv-x="454" />
<glyph unicode="&#x09;" horiz-adv-x="454" />
<glyph unicode="&#xa0;" horiz-adv-x="454" />
<glyph unicode="!" horiz-adv-x="509" d="M207 692v760h98v-649q0 -137 -24 -414h-48l-16 152zM209 8v180h90v-180h-90z" />
<glyph unicode="&#x22;" horiz-adv-x="493" d="M78 1268v182h90v-186q0 -80 -11.5 -102.5t-76.5 -88.5v41q51 47 51 154h-53zM305 1075v43q45 51 45 148h-45v184h88v-174q0 -76 -16.5 -118t-71.5 -83z" />
<glyph unicode="#" horiz-adv-x="1130" d="M68 422v137h219l53 395h-219v140h239l60 422h141l-59 -422h254l59 422h141l-59 -422h170v-138h-190l-56 -397h189v-137h-207l-60 -422h-141l60 422h-254l-60 -422h-141l59 422h-198zM428 559h252l55 397h-252z" />
<glyph unicode="$" horiz-adv-x="733" d="M72 436h90l-2 -76q0 -272 209 -272q197 0 196 258q0 127 -116 250l-218 205q-117 129 -116 295q0 133 46 197.5t177 90.5v68h59v-74q145 -18 193 -114q31 -66 31 -232h-95q0 139 -16 178q-31 82 -143 82q-158 0 -158 -192q0 -127 117 -256l215 -211q117 -135 116 -293 q0 -152 -55 -225.5t-205 -116.5v-139h-59v139q-176 37 -232 152q-35 76 -34 286z" />
<glyph unicode="%" horiz-adv-x="888" d="M12 915v433q0 74 50.5 117.5t127.5 43.5q174 0 175 -159v-435q0 -184 -177 -184q-176 0 -176 184zM14 -117l381 865l152 352q63 143 127 286q82 183 100 226l49 -25l-755 -1724zM74 907q-1 -121 114 -121t115 140v411q0 117 -121 117q-43 0 -75.5 -31.5t-32.5 -76.5v-439 zM492 113v395q0 115 39.5 175t152.5 60q74 0 119 -45t45 -118v-455q0 -82 -53 -129q-49 -49 -133 -49q-76 0 -123 47q-47 43 -47 119zM557 113q0 -49 32 -80t85 -31q41 0 78 31q33 33 32 76v479q0 41 -33.5 69.5t-74.5 28.5q-43 0 -81 -29.5t-38 -76.5v-467z" />
<glyph unicode="&#x26;" horiz-adv-x="858" d="M33 260q0 193 194 418q-33 100 -51 181t-18 140q0 98 45 168q53 82 147 82q74 0 125 -49t51 -125q0 -100 -69 -215l-129 -192q113 -256 254 -484q66 100 90 248q12 86 12 264h84v-71q0 -268 -129 -500q72 -55 147 -55l37 2v-78h-32q-104 0 -218 65q-113 -78 -231 -77 q-135 0 -222 71.5t-87 206.5zM121 287q0 -229 246 -230q18 0 70 18.5t57 20.5q20 8 30 17l-141 231q-80 131 -119 244q-143 -166 -143 -301zM236 991q0 -106 53 -231q151 180 151 305q0 37 -24.5 74t-61.5 37q-119 0 -118 -185z" />
<glyph unicode="'" horiz-adv-x="288" d="M92 1079v187q0 135 94 186l-4 -45q-51 -57 -51 -135v-12h51v-181h-90z" />
<glyph unicode="(" horiz-adv-x="454" d="M45 592q0 479 334 852v-111q-242 -326 -242 -751q0 -406 232 -750v-119q-154 168 -242 410q-41 117 -61.5 230.5t-20.5 238.5z" />
<glyph unicode=")" horiz-adv-x="454" d="M66 -168q244 334 243 700q0 254 -51 422q-27 88 -71 180.5t-117 206.5v109q330 -334 329 -899q0 -213 -90 -441.5t-243 -388.5v111z" />
<glyph unicode="*" horiz-adv-x="536" d="M35 1255l22 66l170 -43v172h72l2 -168q53 6 166 49l22 -63q-92 -27 -167 -66q27 -35 51 -69.5t49 -71.5l-57 -35l-105 148q-25 -43 -98 -150l-62 43q59 72 111 147z" />
<glyph unicode="+" horiz-adv-x="989" d="M25 557v88h409v406h88v-406h404v-88h-404v-407h-88v407h-409z" />
<glyph unicode="," horiz-adv-x="288" d="M115 6v174h88v-190q0 -61 -18.5 -97t-69.5 -75v28q51 74 51 148v12h-51z" />
<glyph unicode="-" horiz-adv-x="493" d="M63 563v84h363v-84h-363z" />
<glyph unicode="." horiz-adv-x="288" d="M109 4v180h90v-180h-90z" />
<glyph unicode="/" d="M47 0l420 1440h86l-412 -1440h-94z" />
<glyph unicode="0" horiz-adv-x="700" d="M51 350v787q0 150 78 231.5t223 81.5q176 0 242 -123q39 -84 39 -283v-663q0 -381 -279 -381q-303 0 -303 350zM139 332q0 -248 219 -248q12 0 48 12q84 33 114 107q20 55 21 159v764q0 238 -197 238q-205 0 -205 -219v-813z" />
<glyph unicode="1" horiz-adv-x="700" d="M84 1159v78q86 14 157.5 69.5t98.5 133.5h80v-1438h-96v1266q-137 -109 -240 -109z" />
<glyph unicode="2" horiz-adv-x="700" d="M61 -2v35q0 125 117 297l213 315q117 209 117 432q0 123 -25 189q-37 94 -147 94q-109 0 -141 -133q-6 -31 -10.5 -85.5t-4.5 -133.5v-27h-88v100q0 174 39 252q55 117 211 117q256 0 256 -354q0 -207 -76 -385q-49 -111 -178 -301q-70 -102 -118 -179t-83 -147h461v-86 h-543z" />
<glyph unicode="3" horiz-adv-x="700" d="M43 434h86q0 -88 7 -149.5t18 -94.5q37 -129 176 -129q199 0 198 281q0 207 -51 283q-66 98 -262 98l2 102q272 0 272 252v45q0 111 -24 164q-35 72 -137 72q-156 0 -156 -217l2 -58v-59h-90v168q0 111 63.5 181.5t176.5 70.5q160 0 215 -101q41 -72 41 -247 q0 -133 -46.5 -210t-168.5 -114q152 -20 208 -123q20 -39 32.5 -101.5t12.5 -146.5q0 -193 -47 -286q-66 -133 -239 -133q-186 0 -250 145q-18 47 -28.5 118.5t-10.5 188.5z" />
<glyph unicode="4" horiz-adv-x="700" d="M10 463v98l373 877h127v-889h174v-84h-174v-463h-92v461h-408zM98 547h318v764z" />
<glyph unicode="5" horiz-adv-x="700" d="M70 338l2 59v58h90l-2 -158q0 -217 168 -217q111 0 153 92q27 63 27 190v281q0 250 -154 250q-92 0 -134 -49t-42 -150h-80v744h475v-82h-380v-428q86 49 159 49q246 0 246 -330v-325q0 -328 -272 -328q-154 0 -213 102q-43 74 -43 242z" />
<glyph unicode="6" horiz-adv-x="700" d="M74 1194q0 129 86 199.5t217 70.5q152 0 213 -110q43 -80 43 -248v-37h-84q0 76 -7 130t-14 69q-31 102 -151 102q-205 0 -205 -225v-350l104 65q59 27 119 27q104 0 172 -74t68 -178v-359q0 -125 -71.5 -203.5t-194.5 -78.5q-66 0 -113 14.5t-92 50.5q-86 68 -86 193z M168 299q0 -88 47 -147q49 -68 135 -68q88 0 142.5 50t54.5 138v332q0 86 -44 140.5t-128 54.5q-86 0 -148 -70q-31 -35 -45 -71.5t-14 -84.5v-274z" />
<glyph unicode="7" horiz-adv-x="700" d="M76 1356v80h428h61l62 -2v-78q-156 -352 -230 -660q-41 -170 -62.5 -339t-21.5 -353h-92q0 358 81 692t239 660h-465z" />
<glyph unicode="8" horiz-adv-x="700" d="M61 408q0 182 17 239q31 129 151 168q-147 43 -147 268l2 60v57q0 260 276 260q158 0 211 -102q37 -72 37 -244q0 -129 -22 -188q-35 -96 -137 -117q113 -37 149 -119q25 -55 25 -194v-232q0 -121 -70 -197.5t-191 -76.5q-186 0 -253 125q-47 88 -48 293zM147 395 q0 -139 27 -211q41 -113 154 -112q133 0 178 88q33 66 33 207v96q0 139 -31 207q-43 96 -170 96q-133 0 -174 -129q-17 -62 -17 -242zM174 1092q0 -117 27 -168q37 -72 143 -72q178 0 178 209v76q0 115 -26 168q-41 76 -146 75q-121 0 -157 -90q-18 -47 -19 -198z" />
<glyph unicode="9" horiz-adv-x="700" d="M41 307l4 80h90l-2 -43l-2 -43q0 -225 188 -225q121 0 166 88q33 66 33 192v308q-121 -84 -211 -84q-260 0 -260 292v201q0 193 47 275q66 115 240 114q170 0 231 -119q41 -82 41 -270l-2 -264l-2 -262l2 -82v-84q0 -98 -10 -161.5t-37 -110.5q-66 -119 -235 -119 q-154 0 -220 84q-61 74 -61 233zM133 1108l2 -55v-56q0 -168 10 -209q29 -124 140 -124q238 0 237 278v199q0 233 -196 233q-115 0 -160 -82q-33 -61 -33 -184z" />
<glyph unicode=":" horiz-adv-x="370" d="M197 2v180h90v-180h-90zM199 750v180h92v-180h-92z" />
<glyph unicode=";" horiz-adv-x="370" d="M205 -150q51 78 51 140v14h-47v180h86v-161q0 -80 -16.5 -123t-73.5 -82v32zM209 752v180h90v-180h-90z" />
<glyph unicode="&#x3c;" horiz-adv-x="1241" d="M94 455v127l1041 471v-140l-871 -395l871 -395v-139z" />
<glyph unicode="=" horiz-adv-x="989" d="M-49 379v90h1032v-90h-1032zM-49 741v93h1032v-93h-1032z" />
<glyph unicode="&#x3e;" horiz-adv-x="1241" d="M106 -16v139l871 395l-871 395v140l1041 -471v-127z" />
<glyph unicode="?" horiz-adv-x="700" d="M129 1090q0 94 9 152t32 106q55 125 207 125q162 0 223 -144q37 -90 37 -280q0 -135 -103.5 -298t-103.5 -284v-105h-94v11v47l-2 45q0 125 53 225l102 154q53 88 54 168v61q0 315 -170 316q-152 0 -152 -285l2 -55v-56h-90zM334 6v180h90v-180h-90z" />
<glyph unicode="@" horiz-adv-x="2078" d="M301 739q0 315 227.5 542.5t544.5 227.5q283 0 490 -174q215 -184 215 -465q0 -207 -140 -391q-152 -201 -350 -200q-57 0 -94 34q-37 41 -37 95q-121 -129 -250 -129t-215 97t-86 230q0 109 31 203t96 180q135 182 346 182q158 0 236 -159l41 127h141l-149 -504 q-37 -135 -37 -164q0 -59 43 -59q121 0 213 166q78 143 78 276q0 238 -168 387q-160 141 -404 141q-268 0 -445 -192.5t-177 -462.5t184 -454.5t455 -184.5q139 0 273 61.5t222 172.5h137q-98 -166 -272 -263.5t-367 -97.5q-164 0 -301 55.5t-254 169.5q-227 225 -227 553z M774 625q0 -84 46 -141.5t126 -57.5q123 0 221 147q84 131 84 263q0 70 -48 129t-120 59q-127 0 -225 -137q-84 -125 -84 -262z" />
<glyph unicode="A" horiz-adv-x="743" d="M20 -4l271 1456h137l262 -1458h-104l-74 442h-307l-78 -440h-107zM219 530h275l-134 820z" />
<glyph unicode="B" horiz-adv-x="743" d="M102 4v1448h267q170 0 223 -104q29 -63 29 -261q0 -63 -6.5 -108t-22.5 -78q-37 -86 -146 -113q109 0 164.5 -57t55.5 -168v-325q0 -233 -287 -234h-277zM203 88h104q152 0 197 29q66 41 65 180v225q0 129 -86 183q-66 38 -200 38h-7h-73v-655zM203 827h30q182 0 238 58 q51 57 51 245q0 137 -26 179q-39 57 -166 57h-127v-539z" />
<glyph unicode="C" horiz-adv-x="743" d="M86 350v791q0 141 64 225q72 96 208 96q293 0 293 -301v-176h-100v72l2 69q0 111 -31 170q-41 74 -145 74q-195 0 -195 -272l2 -744q0 -278 198 -278h1q111 0 149 76q29 53 29 170v176h103l-5 -240q-12 -129 -67 -197q-69 -81 -215 -81h-4q-287 0 -287 370z" />
<glyph unicode="D" horiz-adv-x="782" d="M102 0v1446h150q426 0 426 -461v-532q0 -231 -105.5 -343t-334.5 -112h-68zM201 1358l2 -1270h18l19 -2q215 0 290 127q55 92 56 328v329q0 240 -45 336q-68 152 -279 152h-61z" />
<glyph unicode="E" horiz-adv-x="659" d="M102 2v1444h514v-86h-413v-559h340v-84h-340v-629h411v-86h-512z" />
<glyph unicode="F" d="M104 0v1450h517v-88h-412v-559h360v-86h-364v-717h-101z" />
<glyph unicode="G" horiz-adv-x="782" d="M90 422v725q0 319 297 319q287 0 287 -315v-162h-99l3 70l2 65q0 121 -37 183q-42 73 -161 73h-3q-113 0 -158 -90q-31 -61 -31 -190l-2 -154l-2 -153v-441q0 -284 186 -284h1q104 0 164 102q47 84 47 197v208h-215v87h311v-658h-74l-2 115q-88 -137 -227 -137 q-180 0 -246 141q-41 94 -41 299z" />
<glyph unicode="H" horiz-adv-x="782" d="M96 0v1446h105v-641h377v639h96v-1444h-96l-3 147l5 367l-7 203h-374v-717h-103z" />
<glyph unicode="I" horiz-adv-x="331" d="M129 6v1444h100v-1452z" />
<glyph unicode="J" horiz-adv-x="659" d="M63 303v150h93v-62l-2 -59q0 -268 141 -269q86 0 125 66q26 45 26 136v7l3 1172h94l-2 -1176q0 -288 -250 -288h-2q-225 0 -226 323z" />
<glyph unicode="K" horiz-adv-x="700" d="M98 6v1446h97v-704l366 704h117q-31 -49 -73 -124t-87 -163l-153 -288l311 -869h-107l-266 754l-108 -205v-551h-97z" />
<glyph unicode="L" d="M102 0v1448h105v-1358h375v-90h-480z" />
<glyph unicode="M" horiz-adv-x="989" d="M78 4l16 1446l146 2q55 -274 104 -532q29 -147 80 -437q43 -242 59 -342q12 133 39 297t70 359l137 651h139v-1446h-80l-2 1335q-10 -31 -27.5 -106.5t-31.5 -147.5l-45 -256l-158 -823h-88q-92 508 -153 797q-31 178 -111 534v-1331h-94z" />
<glyph unicode="N" horiz-adv-x="782" d="M90 2v1448h148l348 -1387l-13 1387h95v-1450h-148l-344 1374l6 -565v-807h-92z" />
<glyph unicode="O" horiz-adv-x="782" d="M86 322v751q0 190 57 279q71 110 249 110h3q119 0 198 -72.5t79 -191.5v-833q0 -188 -56 -275q-67 -108 -244 -108h-3q-283 0 -283 340zM178 365q0 -299 201 -299q94 0 151 77q49 68 50 168v832q0 104 -53.5 167.5t-151.5 63.5q-135 0 -176 -135q-16 -59 -17 -250l-2 -74 l-2 -73v-477z" />
<glyph unicode="P" horiz-adv-x="743" d="M96 2v1444l78 2h78h86q197 0 268 -84q57 -76 58 -277v-122q0 -207 -144 -269q-80 -32 -311 -32h-14v-662h-99zM197 743h147q164 0 207 101q22 49 22 230v16q0 172 -41 221q-51 57 -219 57h-57l-59 -2v-623z" />
<glyph unicode="Q" horiz-adv-x="782" d="M86 446v664q0 358 303 358q285 0 285 -338v-714q0 -143 -17 -209q-27 -113 -110 -174l196 -178l-69 -52l-215 191l-117 -8q-158 0 -219 164q-37 102 -37 296zM182 371q1 -299 183 -299q127 0 178 96q37 68 37 211v764q0 233 -205 233q-193 0 -193 -268v-737z" />
<glyph unicode="R" horiz-adv-x="743" d="M98 8l2 1444l109 2l115 2q168 0 243 -47q100 -63 101 -215v-201q0 -219 -207 -276l266 -715h-106l-261 709h-161v-703h-101zM197 797h198q78 0 123 47t45 123v227q0 102 -59 143q-49 33 -156 33h-151v-573z" />
<glyph unicode="S" horiz-adv-x="743" d="M61 352l2 62v61h97v-53l-2 -53q0 -141 37 -209q51 -94 178 -94q190 0 190 239q0 152 -119 297l-223 238q-121 150 -121 305q0 321 265 321h2q154 0 221 -86q57 -76 57 -237v-56l-2 -55h-96l2 55v58q0 113 -31 168q-40 69 -148 69h-3q-166 0 -166 -225q0 -145 118 -283 l222 -233q118 -149 118 -329q0 -171 -71.5 -251.5t-235.5 -80.5q-291 0 -291 372z" />
<glyph unicode="T" d="M-12 1362v90h610v-92h-260v-1352h-98v1354h-252z" />
<glyph unicode="U" horiz-adv-x="782" d="M94 246v1204h99v-1155q0 -119 48 -173t165 -54q109 0 145 108q20 68 20 201v1071h99v-1139q0 -334 -283 -334q-68 0 -118 16.5t-93 55.5q-82 72 -82 199z" />
<glyph unicode="V" horiz-adv-x="700" d="M29 1450h104l105 -651q31 -205 53 -363q14 -104 37 -291q14 150 34.5 293.5t61.5 360.5l119 649h100l-266 -1448h-105z" />
<glyph unicode="W" horiz-adv-x="1114" d="M-6 1450h106q23 -184 99 -643q68 -414 92 -647l35 295q20 190 75 497l80 498h99l108 -653q12 -68 39 -260q39 -285 51 -375l45 370l144 918h98l-234 -1448h-112q-4 27 -49 336q-18 131 -59.5 415.5t-78.5 551.5q-16 -158 -34.5 -291t-55.5 -361l-98 -651h-100z" />
<glyph unicode="X" horiz-adv-x="700" d="M20 4l267 805q-90 322 -201 641h107q20 -98 73 -272t78 -283q39 147 79 274t97 279h107q-53 -133 -117 -324l-111 -325l248 -797h-104q-18 121 -98 354.5t-105 350.5q-23 -123 -105.5 -348.5t-107.5 -354.5h-107z" />
<glyph unicode="Y" horiz-adv-x="700" d="M-2 1450h96q127 -297 234 -690l196 577l39 115h103l-156 -434q-129 -354 -133 -379v-635h-94v647l-152 398q-35 94 -57 161q-35 104 -76 240z" />
<glyph unicode="Z" horiz-adv-x="700" d="M27 2v66q90 229 169.5 442t161.5 430q143 383 158 422h-397v90h514v-66l-496 -1296h486v-88h-596z" />
<glyph unicode="[" horiz-adv-x="454" d="M100 -289v1737h297v-74h-202v-1589h196v-74h-291z" />
<glyph unicode="\" horiz-adv-x="569" d="M-35 1509h135l504 -1548h-137z" />
<glyph unicode="]" horiz-adv-x="454" d="M53 -211h205v1591h-205v74h293v-1737h-293v72z" />
<glyph unicode="^" horiz-adv-x="0" d="M-225 1585q94 100 178 223h98l152 -221h-82l-113 137l-133 -139h-100z" />
<glyph unicode="_" horiz-adv-x="1138" d="M0 -154h1139v-102h-1139v102z" />
<glyph unicode="`" horiz-adv-x="0" d="M-260 1399h203l176 -223h-64z" />
<glyph unicode="a" d="M39 244q0 162 135 264l264 164v104q0 182 -133 182q-98 0 -123 -79l-18 -162h-84l-2 49q0 272 233 272q213 0 213 -241v-654q0 -49 62 -65l2 -74l-25 -2q-78 0 -129 76q-104 -76 -186 -76q-209 0 -209 242zM121 238q0 -68 37 -112t98 -44q55 0 98 31l84 65v397 q-164 -84 -213 -124q-104 -86 -104 -213z" />
<glyph unicode="b" horiz-adv-x="659" d="M90 6v1444h80v-496q109 92 188 93q121 0 170 -99q31 -68 31 -209v-487q0 -106 -59.5 -180t-163.5 -74q-74 0 -162 90v-82h-84zM172 303q0 -84 40 -156.5t120 -72.5q147 0 147 198v512q0 184 -141 185q-166 0 -166 -234v-432z" />
<glyph unicode="c" d="M61 305v436q0 295 232 295q156 0 211 -114q35 -76 35 -252h-82q0 135 -19 190q-35 100 -143 101q-61 0 -103 -54.5t-42 -120.5v-510q0 -200 161 -200h2q106 0 138 117q8 49 8 202h86v-166q0 -113 -71 -172t-183 -59q-229 0 -230 307z" />
<glyph unicode="d" horiz-adv-x="659" d="M80 252v530q0 102 54 179t151 77q57 0 104 -24l84 -64v500h82v-1446h-78l2 107q-90 -117 -190 -117q-106 0 -157.5 72.5t-51.5 185.5zM164 260q0 -76 37.5 -133t111.5 -57q49 0 106.5 51t57.5 102v559q0 63 -52 119.5t-116 56.5q-68 0 -106.5 -58t-38.5 -126v-514z" />
<glyph unicode="e" d="M66 702q0 154 36 232q53 106 197 106q244 0 244 -292v-238h-391l-2 -178q0 -250 137 -250q121 0 153 88q16 45 17 192h80l6 -77q0 -281 -232 -281q-117 0 -180 73t-63 189v219zM152 580h307l2 69v70q0 244 -146 244q-74 0 -118.5 -45.5t-44.5 -116.5v-221z" />
<glyph unicode="f" horiz-adv-x="370" d="M25 956v78l118 -2l-4 86l-2 86q0 244 187 244h49v-78h-8q-86 0 -117 -43q-23 -35 -23 -127v-166h131v-78h-129v-952h-80v952h-122z" />
<glyph unicode="g" horiz-adv-x="659" d="M76 -102h80q16 -133 141 -134q176 0 176 193l-2 141q-96 -92 -184 -92q-82 0 -144 62q-57 63 -57 147v629q0 84 62.5 143.5t146.5 59.5q94 0 178 -91v84h82v-1099q0 -258 -250 -258q-104 0 -166 53q-31 25 -47 61.5t-16 89.5v11zM166 238q0 -63 40 -107.5t105 -44.5 q59 0 110.5 51t51.5 111v573q0 53 -51 103q-51 45 -111 45q-63 0 -104 -46t-41 -110v-575z" />
<glyph unicode="h" horiz-adv-x="659" d="M92 4v1444h88v-490l92 62q45 24 104 24h5q80 0 132 -57t52 -137v-846h-82v793q0 166 -143 166q-96 0 -156 -129v-830h-92z" />
<glyph unicode="i" horiz-adv-x="288" d="M119 0v1032h80v-1032h-80zM119 1155v156h82v-156h-82z" />
<glyph unicode="j" horiz-adv-x="331" d="M2 -250q82 35 111 96q22 47 22 140v8v1038h80v-1130q0 -176 -213 -238v86zM133 1155v154h82v-154h-82z" />
<glyph unicode="k" d="M90 6v1446h88v-903l301 487h101l-246 -397l262 -637h-98l-219 553l-99 -162v-387h-90z" />
<glyph unicode="l" horiz-adv-x="288" d="M123 0v1446h80v-1446h-80z" />
<glyph unicode="m" horiz-adv-x="1030" d="M70 4v721l2 154v153h86v-76q92 92 194 93q131 0 180 -121q86 121 183 121q133 0 182 -88q33 -66 33 -211l-2 -748h-80v578l2 75l4 80q0 233 -121 234q-125 0 -186 -125v-840h-90v778q0 90 -21 131q-29 55 -110 56q-111 0 -166 -109v-856h-90z" />
<glyph unicode="n" horiz-adv-x="659" d="M96 4v1030h86l2 -88q96 100 174 101q123 0 172 -82q35 -59 35 -195v-389q0 -84 -1 -178t-3 -197l-76 -2l-2 793q0 82 -20 121q-29 53 -107 53q-66 0 -106 -33q-31 -25 -70 -90v-844h-84z" />
<glyph unicode="o" d="M59 287v467q0 282 248 282h2q233 0 234 -245v-541q0 -104 -61.5 -178t-164.5 -74q-141 0 -199.5 71.5t-58.5 217.5zM141 694l2 -211v-213q0 -194 170 -194q147 0 148 221v442q0 217 -162 217q-158 0 -158 -262z" />
<glyph unicode="p" horiz-adv-x="659" d="M94 -328v1364h88l2 -88q92 98 183 99q201 0 200 -285v-479q0 -283 -217 -283q-84 0 -170 88v-416h-86zM178 227q0 -61 50 -105t116 -44q59 0 99 50t40 114v573q0 63 -36.5 110.5t-100.5 47.5q-66 0 -106 -39q-27 -27 -62 -98v-609z" />
<glyph unicode="q" horiz-adv-x="659" d="M80 682q0 164 33 244q53 123 192 123q76 0 168 -84v73h80v-1364h-84v424l-80 -71q-43 -31 -100 -31q-125 0 -174 98q-33 72 -33 207v191zM164 696l2 -192v-195q0 -235 126 -235h1q76 0 126 54t50 132v531q0 70 -44 124t-112 54q-150 0 -149 -273z" />
<glyph unicode="r" horiz-adv-x="411" d="M100 6l2 916v108h88v-180q43 104 216 203v-109q-82 -27 -119 -62.5t-82 -119.5l-17 -35v-721h-88z" />
<glyph unicode="s" horiz-adv-x="577" d="M37 326l2 36h86l-2 -65q0 -221 162 -221q149 0 149 182q0 96 -92 186l-172 150q-92 96 -92 211q0 231 215 231q123 0 174 -71q20 -29 32.5 -77t12.5 -112l-2 -55l-86 2l2 35v33q0 167 -135 167h-2q-51 0 -90 -38q-35 -39 -35 -93q0 -109 92 -198l174 -148q92 -96 92 -239 q0 -104 -60.5 -174t-168.5 -70q-152 0 -211 92q-45 74 -45 236z" />
<glyph unicode="t" horiz-adv-x="370" d="M2 954v78h107v264h88v-264h155v-78h-153l-2 -792q0 -90 100 -90l55 4v-76l-104 -4q-135 0 -135 123v835h-111z" />
<glyph unicode="u" horiz-adv-x="659" d="M84 279v753h88v-547l-4 -82l-2 -84q0 -247 144 -247h1q29 0 52.5 8t52.5 33q51 41 51 92v827h88v-1032h-84l2 98q-96 -102 -192 -102q-197 0 -197 283z" />
<glyph unicode="v" horiz-adv-x="536" d="M6 1028h88l156 -895l156 895h96l-205 -1032h-98z" />
<glyph unicode="w" horiz-adv-x="866" d="M-10 1036h84l143 -891q10 86 27.5 198t44.5 247l84 444h76l137 -876l155 876h90l-200 -1032h-90l-133 866q-27 -184 -37 -250q-23 -121 -35 -184l-80 -432h-84z" />
<glyph unicode="x" d="M2 2l221 541q-86 184 -209 491h88q90 -203 166 -418q61 176 166 418l92 -2l-211 -477l220 -555l-93 -2q-125 326 -172 483q-31 -92 -180 -479h-88z" />
<glyph unicode="y" horiz-adv-x="577" d="M-6 -246l10 -2h8q121 0 170 74q18 35 45 188q-29 141 -66.5 319.5t-76.5 356.5q-49 223 -78 346h94l179 -860l188 858h80l-8 -65l-252 -1078q-25 -119 -82 -165q-59 -55 -174 -56h-37v84z" />
<glyph unicode="z" horiz-adv-x="577" d="M55 0v76l363 874h-330v82h434v-69l-370 -879h362v-84h-459z" />
<glyph unicode="{" horiz-adv-x="684" d="M86 479v123q111 0 147 137q8 31 12.5 90.5t4.5 139.5l-2 88q0 96 4 158.5t18 109.5q47 154 191 154h137v-133h-90q-94 0 -94 -168v-232l-2 -117q0 -86 -50.5 -174t-128.5 -112q180 -59 181 -412l-2 -178q0 -221 96 -221h90v-133h-137q-96 0 -152.5 80.5t-56.5 183.5v350 q0 90 -37 170q-43 96 -129 96z" />
<glyph unicode="|" horiz-adv-x="532" d="M193 -39v1548h149v-1548h-149z" />
<glyph unicode="}" horiz-adv-x="684" d="M86 -268h90q94 0 94 221l-2 176q0 156 27 242q39 131 156 168q-78 25 -132 118q-27 47 -38 85t-11 85v351q0 168 -94 168h-90v133h137q156 0 199 -193q12 -66 12 -317q0 -166 17 -230q35 -137 147 -137v-123q-84 0 -129 -96q-37 -74 -37 -170v-350q0 -102 -51 -178 q-59 -86 -158 -86h-137v133z" />
<glyph unicode="~" horiz-adv-x="0" d="M-225 1630q80 111 143 111q31 0 92 -25q31 -10 49.5 -15t40.5 -7q29 0 97 61l32 -24q-72 -123 -151 -123q-33 0 -89.5 23.5t-88.5 23.5q-23 0 -97 -49z" />
<glyph unicode="&#xa1;" horiz-adv-x="370" d="M86 432q0 403 33 639h51l16 -153l11 -156v-760h-107zM98 1272v180h92v-180h-92z" />
<glyph unicode="&#xa2;" d="M61 305v436q0 270 203 293v99h64v-99q133 -12 182 -127q29 -76 29 -237h-84q0 135 -19 190q-35 100 -141 101q-61 0 -103 -54.5t-42 -120.5v-512q0 -199 167 -198q143 0 144 223v51l-2 45h86v-166q0 -100 -58.5 -158.5t-158.5 -70.5v-131h-64v131q-203 18 -203 305z" />
<glyph unicode="&#xa3;" horiz-adv-x="743" d="M23 0v98q127 0 219 95.5t92 222.5q0 74 -76 192h-223v72h172q-59 172 -60 295q0 176 35 254q53 129 199 129q145 0 207 -105q41 -76 41 -237v-86h-90l-2 160q0 186 -158 186q-66 0 -107 -62q-16 -29 -24 -57.5t-8 -69.5v-145q0 -131 75 -262h220v-72h-173q61 -86 62 -209 q0 -102 -53 -184q-49 -82 -140 -127l152 -6l149 -6q68 0 156 22l-2 -86q-154 -23 -205 -22q-23 0 -58.5 2t-82.5 8l-139 10q-39 0 -84 -2t-94 -8z" />
<glyph unicode="&#xa4;" horiz-adv-x="804" d="M51 610l23 72h86v72h-109l23 71h86v316q0 141 63 225q72 96 209 96q293 0 293 -301v-176h-100v72l2 69q0 111 -31 170q-41 74 -145 74q-195 0 -195 -272l2 -273h303l-22 -71h-281v-72h258l-22 -72h-236v-256q0 -279 199 -278q111 0 149 76q29 53 29 170v176h102l-4 -240 q-12 -131 -65 -197q-70 -82 -222 -81q-287 0 -286 370v260h-109z" />
<glyph unicode="&#xa7;" horiz-adv-x="743" d="M68 127l2 53v51h86v-45l-2 -47q0 -129 34 -184q43 -72 168 -72q201 0 201 230q0 94 -33 135q-14 20 -110 84l-228 135q-119 90 -118 223q0 141 135 221q-70 63 -92 103q-25 49 -25 135q0 313 295 313q184 0 235 -121q27 -68 27 -284h-88v110q0 109 -39 159t-149 50 q-190 0 -191 -225q0 -121 129 -207l242 -133q129 -90 129 -231q0 -129 -101 -244l56 -92q8 -20 12 -44t4 -63q0 -172 -70.5 -253t-240.5 -81q-268 0 -268 324zM150 690q0 -94 149 -194l236 -131q31 66 45 107.5t14 74.5q0 113 -125 207q-41 29 -223 125q-96 -90 -96 -189z " />
<glyph unicode="&#xa8;" horiz-adv-x="0" d="M-205 1212v152h107v-152h-107zM100 1210v152h105v-152h-105z" />
<glyph unicode="&#xa9;" horiz-adv-x="1472" d="M29 655q0 285 200.5 485.5t485.5 200.5t485.5 -200.5t200.5 -485.5t-201 -485.5t-485 -200.5q-285 0 -485.5 201t-200.5 485zM109 655q0 -246 178 -426t428 -180q246 0 426 178.5t180 427.5q0 246 -178 426.5t-428 180.5q-246 0 -426 -178.5t-180 -428.5zM344 639 q0 158 104.5 276.5t266.5 118.5q37 0 104.5 -18.5t104.5 -18.5q35 0 47 31h39l8 -254h-41q-16 90 -82 148.5t-156 58.5q-121 0 -200 -111q-68 -98 -68 -229q0 -135 68.5 -222t201.5 -87q88 0 142 26q14 6 40.5 24.5t75.5 53.5l23 -33q-141 -147 -297 -147 q-172 0 -276.5 104.5t-104.5 278.5z" />
<glyph unicode="&#xab;" horiz-adv-x="743" d="M27 608q53 29 133 94l125 107h127l-269 -207l256 -207h-120zM324 602l254 207h122l-254 -209q82 -66 236 -205h-109z" />
<glyph unicode="&#xac;" horiz-adv-x="1329" d="M-35 463v108h1321v-571h-110v463h-1211z" />
<glyph unicode="&#xad;" horiz-adv-x="493" d="M63 563v84h363v-84h-363z" />
<glyph unicode="&#xae;" horiz-adv-x="1472" d="M27 645q0 285 200.5 485.5t485.5 200.5q281 0 483.5 -201.5t202.5 -484.5q0 -281 -201.5 -482.5t-484.5 -201.5q-285 0 -485.5 200.5t-200.5 483.5zM106 643q0 -252 178.5 -428t428.5 -176q246 0 426 178t180 428q0 248 -179 427t-429 179t-427.5 -179t-177.5 -429z M385 299v37q98 0 98 51v574q0 47 -22 55l-66 4v35h340q270 0 271 -185q0 -84 -59.5 -142t-141.5 -58l239 -305q23 -29 70 -29v-37h-188l-264 352h-52v-258q0 -57 92 -57v-37h-317zM608 973l2 -277q55 0 99.5 8.5t72.5 20.5q90 37 90 131q0 78 -36 113q-16 14 -45 24.5 t-72 16.5l-68 4q-43 0 -43 -41z" />
<glyph unicode="&#xb0;" horiz-adv-x="454" d="M-37 1061q0 123 88 210t211 87t211 -88t88 -209q0 -123 -87 -210t-212 -87q-121 0 -210 87t-89 210zM43 1061q0 -88 63 -154q68 -63 156 -63q90 0 154.5 64.5t64.5 152.5t-65.5 153.5t-155.5 65.5t-153.5 -64.5t-63.5 -154.5z" />
<glyph unicode="&#xb1;" horiz-adv-x="1024" d="M-29 0v109h1051v-109h-1051zM-29 700v111h471v471h109v-471h471v-111h-471v-469h-109v469h-471z" />
<glyph unicode="&#xb4;" horiz-adv-x="0" d="M-127 1167l176 224h193l-291 -224h-78z" />
<glyph unicode="&#xb5;" horiz-adv-x="1073" d="M12 -303q0 57 28 163.5t28 157.5v975h172v-659q0 -229 186 -230q61 0 130 46.5t93 105.5v737h172v-762q0 -53 26.5 -110.5t78.5 -57.5q53 0 78 48l30 92l39 -2q-55 -233 -242 -234q-86 0 -131 58q-27 37 -51 141q-47 -80 -133 -135q-96 -63 -176 -64q-61 0 -109 33 l-92 63v-45q0 -59 33 -164.5t33 -154.5q0 -53 -23 -92q-25 -49 -73 -49q-47 0 -72 44t-25 95z" />
<glyph unicode="&#xb6;" horiz-adv-x="1366" d="M180 1038q0 195 131 305q121 102 322 103h471v-111h-70v-1677h-119v1677h-294v-1677h-119v995q-150 25 -238 127q-84 106 -84 258z" />
<glyph unicode="&#xb7;" horiz-adv-x="321" d="M72 608q0 43 30.5 74t75.5 31q43 0 75 -33t32 -76q0 -41 -31 -78q-31 -31 -76 -30q-47 0 -76.5 31.5t-29.5 80.5z" />
<glyph unicode="&#xb8;" horiz-adv-x="0" d="M-164 -264l43 39q66 -31 109 -31q72 0 71 55q0 63 -104 99l8 151h62v-102q68 -25 98 -49q43 -37 43 -97q0 -127 -143 -127q-82 0 -187 62z" />
<glyph unicode="&#xbb;" horiz-adv-x="743" d="M8 401q166 111 260 205l-237 203l112 -2l123 -105q72 -59 133 -94q-35 -25 -92 -69.5t-172 -137.5h-127zM303 399l266 201l-250 209h121l248 -209l-258 -199z" />
<glyph unicode="&#xbf;" horiz-adv-x="700" d="M51 406q0 119 45 208q6 16 35 61.5t78 117.5q23 33 36 68.5t13 76.5l2 156h92v-121q0 -135 -103.5 -288t-103.5 -312q0 -141 23 -203q37 -109 147 -109q109 0 140 156q10 61 10 240h90l2 -185q0 -127 -55 -206q-63 -88 -189 -89q-172 0 -227 142q-35 86 -35 287z M260 1264v188h94v-188h-94z" />
<glyph unicode="&#xc0;" horiz-adv-x="743" d="M20 -4l271 1456h137l262 -1458h-104l-74 442h-307l-78 -440h-107zM76 1810h200l177 -223h-66zM219 530h275l-134 820z" />
<glyph unicode="&#xc1;" horiz-adv-x="743" d="M20 -4l271 1456h137l262 -1458h-104l-74 442h-307l-78 -440h-107zM203 1585q100 100 176 225h205q-55 -35 -299 -223zM219 530h275l-134 820z" />
<glyph unicode="&#xc2;" horiz-adv-x="743" d="M20 -4l271 1456h137l262 -1458h-104l-74 442h-307l-78 -440h-107zM113 1585q92 92 174 223h100l152 -221h-82l-115 137l-133 -139h-96zM219 530h275l-134 820z" />
<glyph unicode="&#xc3;" horiz-adv-x="743" d="M20 -4l271 1456h137l262 -1458h-104l-74 442h-307l-78 -440h-107zM111 1630q20 33 65 72t78 39q31 0 92 -25q31 -12 49.5 -16t42.5 -6q29 0 94 61l33 -24q-74 -123 -153 -123q-33 0 -89.5 23.5t-86.5 23.5q-25 0 -99 -49zM219 530h275l-134 820z" />
<glyph unicode="&#xc4;" horiz-adv-x="743" d="M20 -4l271 1456h137l262 -1458h-104l-74 442h-307l-78 -440h-107zM158 1622v152h104v-152h-104zM219 530h275l-134 820zM465 1622v154h98v-154h-98z" />
<glyph unicode="&#xc5;" horiz-adv-x="743" d="M20 -4l271 1456h137l262 -1458h-104l-74 442h-307l-78 -440h-107zM219 530h275l-134 820zM221 1669q0 51 44 93t97 42q55 0 91 -44t36 -101q0 -51 -40.5 -86t-92.5 -35q-53 0 -96 37q-39 39 -39 94zM266 1673q0 -35 22.5 -61.5t57.5 -30.5q35 0 65.5 24.5t30.5 61.5 q0 33 -22.5 58.5t-57.5 29.5q-96 0 -96 -82z" />
<glyph unicode="&#xc6;" horiz-adv-x="989" d="M-2 2l379 1446h530v-88h-325v-559h297v-88h-299v-625h360v-88h-459v631h-221l-158 -629h-104zM274 713h211v647h-41z" />
<glyph unicode="&#xc7;" horiz-adv-x="743" d="M86 350v791q0 141 64 225q72 96 208 96q293 0 293 -301v-176h-100v72l2 69q0 111 -31 170q-41 74 -145 74q-195 0 -195 -272l2 -744q0 -279 199 -278q111 0 149 76q29 53 29 170v176h103l-5 -244q-12 -133 -69 -197q-70 -78 -228 -77v-35q141 -43 142 -144 q0 -127 -142 -127q-82 0 -186 62l41 39q66 -31 111 -31q72 0 71 55q0 72 -106 99l4 90q-211 41 -211 362z" />
<glyph unicode="&#xc8;" horiz-adv-x="659" d="M53 1810h201l176 -223h-65zM115 2v1444h514v-86h-414v-559h340v-84h-340v-629h412v-86h-512z" />
<glyph unicode="&#xc9;" horiz-adv-x="659" d="M102 2v1444h514v-86h-413v-559h340v-84h-340v-629h411v-86h-512zM168 1585q108 116 176 225h205q-43 -27 -299 -223z" />
<glyph unicode="&#xca;" horiz-adv-x="659" d="M96 1585q92 92 174 223h101l151 -221h-84l-112 137l-133 -139h-97zM121 2v1444h514v-86h-414v-559h340v-84h-340v-629h412v-86h-512z" />
<glyph unicode="&#xcb;" horiz-adv-x="659" d="M102 1624v156h105v-156h-105zM106 2v1444h515v-86h-414v-559h340v-84h-340v-629h411v-86h-512zM412 1624v156h100v-156h-100z" />
<glyph unicode="&#xcc;" horiz-adv-x="331" d="M-121 1810h201l174 -223h-66zM111 6v1444h100v-1452z" />
<glyph unicode="&#xcd;" horiz-adv-x="331" d="M35 1587q121 139 174 223l207 -2q-68 -43 -301 -221h-80zM139 6v1444h101v-1452z" />
<glyph unicode="&#xce;" horiz-adv-x="331" d="M-55 1585q94 100 172 223h100l154 -221h-84l-113 137l-133 -139h-96zM139 6v1444h101v-1452z" />
<glyph unicode="&#xcf;" horiz-adv-x="331" d="M-51 1624v156h102v-156h-102zM123 6v1444h100v-1452zM254 1624v156h104v-156h-104z" />
<glyph unicode="&#xd1;" horiz-adv-x="782" d="M88 2v1448h148l348 -1387l-13 1387h95v-1450h-148l-344 1374l6 -565v-807h-92zM139 1630q72 111 142 111q31 0 93 -23.5t95 -23.5q25 0 90 61l33 -24q-72 -123 -152 -123q-33 0 -89 23.5t-87 23.5q-27 0 -98 -49z" />
<glyph unicode="&#xd2;" horiz-adv-x="782" d="M86 322v751q0 190 57 279q72 111 252 110q119 0 198 -72.5t79 -191.5v-833q0 -188 -56 -275q-68 -109 -247 -108q-283 0 -283 340zM100 1810h201l176 -223h-65zM178 365q0 -299 201 -299q94 0 151 77q49 68 50 168v832q0 104 -53.5 167.5t-151.5 63.5q-135 0 -176 -135 q-16 -59 -17 -250l-2 -74l-2 -73v-477z" />
<glyph unicode="&#xd3;" horiz-adv-x="782" d="M86 322v751q0 190 57 279q72 111 252 110q119 0 198 -72.5t79 -191.5v-833q0 -188 -56 -275q-68 -109 -247 -108q-283 0 -283 340zM178 365q0 -299 201 -299q94 0 151 77q49 68 50 168v832q0 104 -53.5 167.5t-151.5 63.5q-135 0 -176 -135q-16 -59 -17 -250l-2 -74 l-2 -73v-477zM229 1587q59 67 174 223h205q-55 -35 -299 -223h-80z" />
<glyph unicode="&#xd4;" horiz-adv-x="782" d="M86 322v751q0 190 57 279q72 111 252 110q119 0 198 -72.5t79 -191.5v-833q0 -188 -56 -275q-68 -109 -247 -108q-283 0 -283 340zM139 1585q92 100 172 223h101l151 -221h-84l-112 137l-134 -139h-94zM178 365q0 -299 201 -299q94 0 151 77q49 68 50 168v832 q0 104 -53.5 167.5t-151.5 63.5q-135 0 -176 -135q-16 -59 -17 -250l-2 -74l-2 -73v-477z" />
<glyph unicode="&#xd5;" horiz-adv-x="782" d="M84 322v751q0 190 57 279q72 111 252 110q119 0 198 -72.5t79 -191.5v-833q0 -188 -56 -275q-68 -109 -247 -108q-283 0 -283 340zM137 1630q72 111 142 111q31 0 93 -23.5t95 -23.5q25 0 90 61l33 -24q-72 -123 -152 -123q-33 0 -89 23.5t-87 23.5q-27 0 -98 -49z M176 365q0 -299 201 -299q94 0 151 77q49 68 50 168v832q0 104 -53.5 167.5t-151.5 63.5q-135 0 -176 -135q-16 -59 -17 -250l-2 -74l-2 -73v-477z" />
<glyph unicode="&#xd6;" horiz-adv-x="782" d="M86 322v751q0 190 57 279q72 111 250 110q123 0 201 -71.5t78 -192.5v-833q0 -188 -56 -275q-68 -109 -247 -108q-283 0 -283 340zM178 367q0 -299 201 -299q94 0 151 77q49 68 50 168v832q0 104 -53.5 167.5t-151.5 63.5q-135 0 -176 -135q-16 -59 -17 -250l-2 -73 l-2 -74v-477zM184 1624v148l103 6v-154h-103zM489 1624v154h103v-154h-103z" />
<glyph unicode="&#xd8;" horiz-adv-x="782" d="M45 -33l74 174q-35 70 -35 168v803q0 362 303 363q135 0 250 -134l53 127q33 -12 51 -30l-75 -185l6 -151v-246l-2 -246l2 -94l2 -96q0 -197 -49 -299q-70 -137 -252 -137q-80 0 -123 20q-25 12 -100 70l-58 -131zM178 279l395 909q0 84 -53 139t-137 55 q-127 0 -174 -110q-31 -72 -31 -221v-772zM197 186q67 -116 180 -116q203 0 203 309l-2 84l-3 82v514z" />
<glyph unicode="&#xd9;" horiz-adv-x="782" d="M94 246v1204h99v-1155q0 -119 48 -173t165 -54q109 0 145 108q20 68 20 201v1071h99v-1139q0 -334 -283 -334q-68 0 -118 16.5t-93 55.5q-82 72 -82 199zM98 1810h201l176 -223h-65z" />
<glyph unicode="&#xda;" horiz-adv-x="782" d="M94 246v1204h99v-1155q0 -119 48 -173t165 -54q109 0 145 108q20 68 20 201v1071h99v-1139q0 -334 -283 -334q-68 0 -118 16.5t-93 55.5q-82 72 -82 199zM227 1587q59 67 174 223h205q-55 -35 -299 -223h-80z" />
<glyph unicode="&#xdb;" horiz-adv-x="782" d="M94 246v1204h99v-1155q0 -119 48 -173t165 -54q109 0 145 108q20 68 20 201v1071h99v-1139q0 -334 -283 -334q-68 0 -118 16.5t-93 55.5q-82 72 -82 199zM137 1585q92 100 172 223h101l151 -221h-84l-112 137l-134 -139h-94z" />
<glyph unicode="&#xdc;" horiz-adv-x="782" d="M94 246v1204h99v-1155q0 -119 48 -173t165 -54q109 0 145 108q20 68 20 201v1071h99v-1139q0 -334 -283 -334q-68 0 -118 16.5t-93 55.5q-82 72 -82 199zM180 1620v154h105v-154h-105zM485 1618v154h103v-154h-103z" />
<glyph unicode="&#xdf;" horiz-adv-x="700" d="M90 2v1212q0 252 246 252q106 0 166 -45q72 -49 71 -151v-205q0 -113 -141 -172q100 -37 139 -96.5t39 -167.5v-471q0 -74 -53 -124t-127 -50q-63 0 -104 39q-39 43 -39 106v160h59v-39l-2 -41q0 -139 90 -139t90 155v418q0 104 -57 150q-43 37 -156 55v86l11 -2 q104 0 143 69q29 51 29 162q0 100 -19 148q-31 74 -119 73q-102 0 -143 -65q-29 -45 -29 -160l2 -180l-8 -977h-88z" />
<glyph unicode="&#xe0;" d="M35 1399h205l178 -223h-66zM59 244q0 162 136 264l264 164v104q0 182 -133 182q-98 0 -123 -79l-19 -162h-84l-2 49q0 272 234 272q213 0 213 -241v-654q0 -49 61 -65l2 -74l-24 -2q-78 0 -129 76q-104 -76 -187 -76q-209 0 -209 242zM141 238q0 -68 37 -112t98 -44 q55 0 99 31l84 65v397q-164 -84 -213 -124q-104 -86 -105 -213z" />
<glyph unicode="&#xe1;" d="M39 244q0 162 135 264l264 164v104q0 182 -133 182q-98 0 -123 -79l-18 -162h-84l-2 49q0 272 233 272q213 0 213 -241v-654q0 -49 62 -65l2 -74l-25 -2q-78 0 -129 76q-104 -76 -186 -76q-209 0 -209 242zM121 238q0 -68 37 -112t98 -44q55 0 98 31l84 65v397 q-164 -84 -213 -124q-104 -86 -104 -213zM147 1167l181 224h192l-295 -224h-78z" />
<glyph unicode="&#xe2;" d="M39 244q0 162 135 264l264 164v104q0 182 -133 182q-98 0 -123 -79l-18 -162h-84l-2 49q0 272 233 272q213 0 213 -241v-654q0 -49 62 -65l2 -74l-25 -2q-78 0 -129 76q-104 -76 -186 -76q-209 0 -209 242zM72 1165l157 221h107l143 -223h-78l-122 144l-129 -142h-78z M121 238q0 -68 37 -112t98 -44q55 0 98 31l84 65v397q-164 -84 -213 -124q-104 -86 -104 -213z" />
<glyph unicode="&#xe3;" d="M39 244q0 162 135 264l264 164v104q0 182 -133 182q-98 0 -123 -79l-18 -162h-84l-2 49q0 272 233 272q213 0 213 -241v-654q0 -49 62 -65l2 -74l-25 -2q-78 0 -129 76q-104 -76 -186 -76q-209 0 -209 242zM51 1214q89 113 152 113q31 0 86 -24q31 -12 46 -16.5t36 -6.5 q51 0 106 61l29 -24q-74 -123 -146 -123q-35 0 -91 23.5t-89 23.5q-49 0 -94 -51zM121 238q0 -68 37 -112t98 -44q55 0 98 31l84 65v397q-164 -84 -213 -124q-104 -86 -104 -213z" />
<glyph unicode="&#xe4;" d="M39 231q0 127 61 205q43 55 174 129l164 103v94q0 88 -18 131q-29 63 -109 63q-94 0 -127 -75q-18 -49 -18 -160l-84 -8l-2 51q0 274 223 274q127 0 178 -63q43 -55 43 -189v-649q0 -57 62 -63v-74h-23q-76 0 -125 76l-94 -53q-49 -25 -100 -25q-98 0 -151.5 65.5 t-53.5 167.5zM119 1208v150h102v-150h-102zM125 209q0 -53 43 -92t96 -39t101 31l79 67v395q-195 -104 -223 -131q-96 -84 -96 -231zM424 1210v150h100v-150h-100z" />
<glyph unicode="&#xe5;" d="M39 242q0 160 133 266l264 164l4 67q0 222 -131 222q-94 0 -125 -80l-20 -160h-82v47q0 276 223 276q219 0 219 -225v-674q0 -49 58 -69v-74h-35q-74 0 -111 76q-106 -76 -190 -76q-100 0 -158 70q-49 61 -49 170zM127 240q0 -70 33 -111q35 -49 98 -49q86 0 178 94v404 l-207 -129q-102 -84 -102 -209zM184 1262q0 55 38 93t93 38t97 -41q41 -37 41 -97q0 -45 -42 -87t-89 -42q-57 0 -97.5 38.5t-40.5 97.5zM225 1268q0 -39 25.5 -70t68.5 -31q37 0 62 31t25 70q0 31 -26 55.5t-56 24.5q-33 0 -66 -24t-33 -56z" />
<glyph unicode="&#xe6;" horiz-adv-x="989" d="M23 270q0 131 147 240l258 154v106q0 96 -16 129q-25 55 -109 55q-96 0 -129 -77q-18 -49 -18 -158l-86 -2l-2 45q0 272 221 272q111 0 203 -78q102 80 190 80q106 0 168 -75q53 -70 53 -183v-250l-387 -8v-264q0 -74 41 -127q45 -51 115 -51q152 0 151 217l-2 55h82v-49 q0 -307 -227 -307q-139 0 -219 131q-104 -127 -215 -127q-219 0 -219 272zM104 238q0 -63 38 -113.5t104 -50.5q68 0 126 44t58 111v353l-215 -131q-111 -86 -111 -213zM512 598h311v135q0 102 -24 156q-39 70 -131 69q-156 0 -156 -225v-135z" />
<glyph unicode="&#xe7;" d="M61 305v436q0 295 232 295q156 0 211 -114q35 -76 35 -252h-82q0 135 -19 190q-35 100 -143 101q-61 0 -103 -54.5t-42 -120.5v-510q0 -203 165 -202q106 0 136 116q4 23 6 66t2 139h86v-166q0 -102 -68 -168q-37 -33 -78 -48t-98 -15v-53q141 -43 141 -144 q0 -127 -143 -127q-80 0 -184 62l41 39q78 -31 110 -31q72 0 72 59q0 68 -109 95l9 104q-176 35 -177 303z" />
<glyph unicode="&#xe8;" d="M33 1399h205l178 -223h-66zM82 702q0 154 37 232q53 106 196 106q244 0 244 -292v-238h-391l-2 -178q0 -250 137 -250q121 0 154 88q16 45 16 192h80l6 -77q0 -281 -231 -281q-117 0 -180.5 73t-63.5 189v219zM168 580h307l2 69v70q0 244 -145 244q-74 0 -119 -45.5 t-45 -116.5v-221z" />
<glyph unicode="&#xe9;" d="M66 702q0 154 36 232q53 106 197 106q244 0 244 -292v-238h-391l-2 -178q0 -250 137 -250q121 0 153 88q16 45 17 192h80l6 -77q0 -281 -232 -281q-117 0 -180 73t-63 189v219zM150 1167l180 224h192l-295 -224h-77zM152 580h307l2 69v70q0 244 -146 244 q-74 0 -118.5 -45.5t-44.5 -116.5v-221z" />
<glyph unicode="&#xea;" d="M66 702q0 154 36 232q53 106 197 106q244 0 244 -292v-238h-391l-2 -178q0 -250 137 -250q121 0 153 88q16 45 17 192h80l6 -77q0 -281 -232 -281q-117 0 -180 73t-63 189v219zM74 1165l157 221h107l143 -223h-78l-122 144l-129 -142h-78zM152 580h307l2 69v70 q0 244 -146 244q-74 0 -118.5 -45.5t-44.5 -116.5v-221z" />
<glyph unicode="&#xeb;" d="M66 702q0 154 36 232q53 106 197 106q244 0 244 -292v-238h-391l-2 -178q0 -250 137 -250q121 0 153 88q16 45 17 192h80l6 -77q0 -281 -232 -281q-117 0 -180 73t-63 189v219zM74 1212v152h106v-152h-106zM152 580h307l2 69v70q0 244 -146 244q-74 0 -118.5 -45.5 t-44.5 -116.5v-221zM381 1210v152h100v-152h-100z" />
<glyph unicode="&#xec;" horiz-adv-x="288" d="M-137 1399h205l176 -223h-66zM104 -2v1032h86v-1032h-86z" />
<glyph unicode="&#xed;" horiz-adv-x="288" d="M10 1167l178 224h193l-293 -224h-78zM119 -2v1032h86v-1032h-86z" />
<glyph unicode="&#xee;" horiz-adv-x="288" d="M-82 1165l162 221h102l146 -223h-78l-121 144l-129 -142h-82zM106 -2v1032h87v-1032h-87z" />
<glyph unicode="&#xef;" horiz-adv-x="288" d="M-20 1212v152h108v-152h-108zM166 -2v1032h86v-1032h-86zM289 1210v152h100v-152h-100z" />
<glyph unicode="&#xf1;" horiz-adv-x="659" d="M94 1214q78 113 148 113q29 0 88 -24q31 -12 46 -16.5t36 -6.5q43 0 108 61l31 -24q-86 -123 -150 -123q-33 0 -86 20.5t-92 24.5q-47 0 -94 -49zM111 4v1030h86l2 -88q96 100 174 101q123 0 172 -82q35 -59 35 -195v-389q0 -84 -1 -178t-4 -197l-75 -2l-2 793 q0 82 -21 121q-29 53 -106 53q-66 0 -107 -33q-31 -25 -69 -90v-844h-84z" />
<glyph unicode="&#xf2;" d="M35 1399h205l178 -223h-66zM78 287v467q0 283 250 282q233 0 233 -245v-541q0 -104 -61.5 -178t-163.5 -74q-141 0 -199.5 71.5t-58.5 217.5zM160 694l2 -211v-213q0 -194 170 -194q147 0 147 221v442q0 217 -162 217q-158 0 -157 -262z" />
<glyph unicode="&#xf3;" d="M59 287v467q0 283 250 282q233 0 234 -245v-541q0 -104 -61.5 -178t-164.5 -74q-141 0 -199.5 71.5t-58.5 217.5zM141 694l2 -211v-213q0 -194 170 -194q147 0 148 221v442q0 217 -162 217q-158 0 -158 -262zM150 1167l180 224h192l-295 -224h-77z" />
<glyph unicode="&#xf4;" d="M59 287v467q0 283 250 282q233 0 234 -245v-541q0 -104 -61.5 -178t-164.5 -74q-141 0 -199.5 71.5t-58.5 217.5zM74 1165l157 221h107l143 -223h-78l-122 144l-129 -142h-78zM141 694l2 -211v-213q0 -194 170 -194q147 0 148 221v442q0 217 -162 217q-158 0 -158 -262z " />
<glyph unicode="&#xf5;" d="M57 1214q89 113 152 113q31 0 86 -24q31 -12 46 -16.5t36 -6.5q51 0 106 61l29 -24q-74 -123 -145 -123q-35 0 -91.5 23.5t-89.5 23.5q-49 0 -94 -51zM63 287v467q0 283 250 282q233 0 234 -245v-541q0 -104 -61.5 -178t-163.5 -74q-141 0 -200 71.5t-59 217.5zM145 694 l2 -211v-213q0 -194 170 -194q147 0 148 221v442q0 217 -162 217q-158 0 -158 -262z" />
<glyph unicode="&#xf6;" d="M59 254v494q0 287 250 286q231 0 232 -264v-422q0 -170 -39 -246q-55 -104 -211 -104q-231 0 -232 256zM94 1204v152h105v-152h-105zM143 293q0 -221 156 -221q160 0 160 215l-2 442q0 225 -152 225q-162 0 -162 -213v-448zM401 1204v152h101v-152h-101z" />
<glyph unicode="&#xf7;" horiz-adv-x="1024" d="M-29 469v109h1045v-109h-1045zM373 252q0 43 31.5 78t78.5 35q43 0 77 -34t34 -79q0 -43 -33 -77t-78 -34q-43 0 -76.5 33t-33.5 78zM373 795q0 43 32.5 76.5t77.5 33.5q43 0 77 -32.5t34 -77.5q0 -43 -33 -77t-78 -34q-43 0 -76.5 33t-33.5 78z" />
<glyph unicode="&#xf8;" d="M23 23l51 108l-19 80v596q0 106 72 168.5t180 62.5q82 0 193 -80l43 76l28 -18l-53 -111l12 -98v-584q0 -102 -73.5 -160.5t-177.5 -58.5q-119 0 -185 84l-45 -86l-22 12zM135 240l303 591q0 129 -149 130q-66 0 -110 -50.5t-44 -115.5v-555zM137 180q58 -102 154 -102 q76 0 118 54t42 136v510z" />
<glyph unicode="&#xf9;" horiz-adv-x="659" d="M55 1399h205l174 -223h-63zM96 279v753h88v-547l-4 -82l-2 -84q0 -248 146 -247q29 0 52 8t52 33q51 41 51 92v827h88v-1032h-84l2 98q-96 -102 -192 -102q-197 0 -197 283z" />
<glyph unicode="&#xfa;" horiz-adv-x="659" d="M88 279v753h88v-547l-4 -82l-2 -84q0 -248 145 -247q29 0 52.5 8t52.5 33q51 41 51 92v827h88v-1032h-84l2 98q-96 -102 -192 -102q-197 0 -197 283zM180 1167l178 224h193l-293 -224h-78z" />
<glyph unicode="&#xfb;" horiz-adv-x="659" d="M84 279v753h88v-547l-4 -82l-2 -84q0 -248 145 -247q29 0 52.5 8t52.5 33q51 41 51 92v827h88v-1032h-84l2 98q-96 -102 -192 -102q-197 0 -197 283zM96 1165l162 221h102l146 -223h-78l-121 144l-129 -142h-82z" />
<glyph unicode="&#xfc;" horiz-adv-x="659" d="M82 303l4 98l2 97l-2 534h84v-518l2 -111v-110q0 -223 135 -223q47 0 104.5 43t57.5 94v825h86v-1030h-84v96q-88 -100 -174 -100q-215 0 -215 305zM123 1208v150h102v-150h-102zM426 1206v152h104v-152h-104z" />
<glyph unicode="&#xff;" horiz-adv-x="577" d="M-6 -246l10 -2h8q121 0 170 74q18 35 45 188q-29 141 -66.5 319.5t-76.5 356.5q-49 223 -78 346h94l179 -860l188 858h80l-8 -65l-252 -1078q-25 -119 -82 -165q-59 -55 -174 -56h-37v84zM51 1212v152h105v-152h-105zM356 1210v152h105v-152h-105z" />
<glyph unicode="&#x152;" horiz-adv-x="1073" d="M63 297v860q0 70 16.5 123t55.5 100q74 86 209 86q129 0 213 -80v64h481v-90h-379v-565h332v-84h-336v-623h379v-86h-475v82q-80 -98 -213 -98q-283 0 -283 311zM156 317q0 -98 46 -173.5t146 -75.5q84 0 149.5 59t65.5 143v897q0 86 -59.5 151.5t-147.5 65.5 q-82 0 -143 -61q-57 -63 -57 -147v-859z" />
<glyph unicode="&#x153;" horiz-adv-x="989" d="M49 315v449q0 272 230 272q119 0 206 -102q49 55 90 76.5t111 21.5q102 0 162.5 -62.5t60.5 -164.5v-283h-385v-291q0 -66 45 -112q23 -23 50.5 -34t62.5 -11q96 0 127 96q6 23 10 64.5t4 109.5l84 -2l2 -43q0 -309 -231 -309q-117 0 -205 119q-92 -117 -203 -117 q-139 0 -188 98q-33 70 -33 225zM127 588l2 -160l2 -160q0 -194 154 -194t153 243v488q0 70 -47 110q-43 43 -115 43q-150 0 -149 -249v-121zM522 594h305v158q0 207 -145 206q-160 0 -160 -233v-131z" />
<glyph unicode="&#x178;" horiz-adv-x="700" d="M-2 1450h96q127 -297 234 -690l196 577l39 115h103l-156 -434q-129 -354 -133 -379v-635h-94v647l-152 398q-35 94 -57 161q-35 104 -76 240zM102 1624v156h103v-156h-103zM408 1624v156h104v-156h-104z" />
<glyph unicode="&#x2c6;" horiz-adv-x="0" d="M-207 1165l162 221h102l146 -223h-78l-123 144l-127 -142h-82z" />
<glyph unicode="&#x2dc;" horiz-adv-x="0" d="M-227 1214l65 74q45 39 86 39q31 0 86 -24q29 -10 46.5 -15.5t39.5 -7.5q39 0 107 61l26 -24q-74 -123 -145 -123q-33 0 -91.5 23.5t-90.5 23.5q-43 0 -92 -51z" />
<glyph unicode="&#x2000;" horiz-adv-x="905" />
<glyph unicode="&#x2001;" horiz-adv-x="1810" />
<glyph unicode="&#x2002;" horiz-adv-x="905" />
<glyph unicode="&#x2003;" horiz-adv-x="1810" />
<glyph unicode="&#x2004;" horiz-adv-x="603" />
<glyph unicode="&#x2005;" horiz-adv-x="452" />
<glyph unicode="&#x2006;" horiz-adv-x="301" />
<glyph unicode="&#x2007;" horiz-adv-x="301" />
<glyph unicode="&#x2008;" horiz-adv-x="226" />
<glyph unicode="&#x2009;" horiz-adv-x="362" />
<glyph unicode="&#x200a;" horiz-adv-x="100" />
<glyph unicode="&#x2010;" horiz-adv-x="493" d="M63 563v84h363v-84h-363z" />
<glyph unicode="&#x2011;" horiz-adv-x="493" d="M63 563v84h363v-84h-363z" />
<glyph unicode="&#x2012;" horiz-adv-x="493" d="M63 563v84h363v-84h-363z" />
<glyph unicode="&#x2013;" horiz-adv-x="700" d="M47 561v84h584v-84h-584z" />
<glyph unicode="&#x2014;" horiz-adv-x="989" d="M-49 559v92h1032v-92h-1032z" />
<glyph unicode="&#x2018;" horiz-adv-x="288" d="M115 1079v187q0 135 94 186l-4 -45q-51 -57 -51 -135v-12h51v-181h-90z" />
<glyph unicode="&#x2019;" horiz-adv-x="288" d="M115 1077v51q31 37 39 60.5t8 81.5h-47v180h86v-195q0 -70 -17 -102q-12 -33 -69 -76z" />
<glyph unicode="&#x201a;" horiz-adv-x="288" d="M92 6v174h88v-190q0 -61 -18.5 -97t-69.5 -75v28q51 74 51 148v12h-51z" />
<glyph unicode="&#x201c;" horiz-adv-x="493" d="M78 1079v181q0 76 16.5 115.5t73.5 78.5v-45q-55 -47 -55 -135l57 -6v-189h-92zM299 1229q0 149 94 223v-47q-49 -55 -49 -121l2 -8v-10h47v-185l-92 -2v35v57z" />
<glyph unicode="&#x201d;" horiz-adv-x="493" d="M86 1268v182h90v-186q0 -80 -11 -102.5t-77 -88.5v41q51 47 51 154h-53zM313 1075v43q45 51 45 148h-45v184h88v-174q0 -76 -16 -118t-72 -83z" />
<glyph unicode="&#x201e;" horiz-adv-x="493" d="M86 0v186h90v-192q0 -129 -90 -182v41q53 49 53 139v8h-53zM311 -2v190h92v-200q0 -115 -92 -181v43q53 63 54 127v11l-3 10h-51z" />
<glyph unicode="&#x2022;" horiz-adv-x="681" d="M74 723q0 109 81 187.5t191 78.5q106 0 184 -78.5t78 -187.5q0 -113 -75.5 -189.5t-186.5 -76.5q-113 0 -192.5 77.5t-79.5 188.5z" />
<glyph unicode="&#x2026;" horiz-adv-x="2052" d="M236 0v217h213v-217h-213zM918 0v217h212v-217h-212zM1599 0v217h213v-217h-213z" />
<glyph unicode="&#x202f;" horiz-adv-x="362" />
<glyph unicode="&#x2039;" horiz-adv-x="681" d="M180 473v189l322 251v-180l-215 -166l215 -166v-180z" />
<glyph unicode="&#x203a;" horiz-adv-x="681" d="M180 221v180l215 166l-215 166v180l322 -251v-189z" />
<glyph unicode="&#x205f;" horiz-adv-x="452" />
<glyph unicode="&#x20ac;" horiz-adv-x="804" d="M51 610l23 72h86v72h-109l23 71h86v316q0 141 63 225q72 96 209 96q293 0 293 -301v-176h-100v72l2 69q0 111 -31 170q-41 74 -145 74q-195 0 -195 -272l2 -273h303l-22 -71h-281v-72h258l-22 -72h-236v-256q0 -279 199 -278q111 0 149 76q29 53 29 170v176h102l-4 -240 q-12 -131 -65 -197q-70 -82 -222 -81q-287 0 -286 370v260h-109z" />
<glyph unicode="&#x2122;" horiz-adv-x="1658" d="M-47 1145l6 192h631l6 -192l-37 -2v18q0 84 -76 115q-16 6 -60 11t-89 5v-618q0 -55 98 -56v-36h-317v36q102 0 102 56l-2 616q-115 0 -158 -18q-68 -29 -67 -129zM653 1300v37h226l264 -573l250 573h221v-37h-19q-78 0 -77 -49v-577q0 -55 98 -56v-36h-318v36 q102 0 103 56v551l-266 -643h-37l-287 610v-518q0 -55 102 -56v-36h-256v36q100 0 101 56v557q0 47 -31 63q-12 6 -74 6z" />
<glyph unicode="&#x25fc;" horiz-adv-x="1034" d="M0 0v1034h1034v-1034h-1034z" />
</font>
</defs>
</svg>
